# xmcd CD database file
#
# Track frame offsets:
#	150
#	25140
#	44840
#	66072
#	87288
#	108741
#	127512
#	148813
#	165815
#	189825
#
# Disc length: 2813 seconds
#
# Revision: 0
# Processed by: cddbd v1.5.2PL0 Copyright (c) Steve Scherf et al.
# Submitted via: CDex 1.51
#
DISCID=7d0afb0a
DTITLE=Wayne Jones - Saturday Street
DYEAR=2009
DGENRE=Jazz
TTITLE0=Strictly Dan
TTITLE1=Saturday Street
TTITLE2=Back In Five
TTITLE3=Slow and Mellow
TTITLE4=Sneaky Pete
TTITLE5=MK3
TTITLE6=Time Traveler
TTITLE7=Latin Tyme
TTITLE8=Hiraeth
TTITLE9=I'm In The Mood (ft. Cheryl Beattie)
EXTD=YEAR: 2009
EXTT0=
EXTT1=
EXTT2=
EXTT3=
EXTT4=
EXTT5=
EXTT6=
EXTT7=
EXTT8=
EXTT9=
PLAYORDER=
